<svg width="42" height="37" viewBox="0 0 42 37" fill="none" xmlns="http://www.w3.org/2000/svg">
<path d="M21 37L21 5" stroke="white" stroke-width="5"/>
<path d="M5 3L37 3" stroke="white" stroke-width="5"/>
<path d="M36.4995 0.0739582C39.2606 0.0331255 41.532 2.23836 41.5729 4.99948C41.6137 7.7606 39.4085 10.032 36.6473 10.0729C33.8862 10.1137 32.1147 7.90107 32.0739 5.13995C32.0331 2.37883 33.7383 0.114791 36.4995 0.0739582Z" fill="#FEFEFE"/>
<path d="M4.99995 10.0324C2.23859 10.0144 0.0146835 7.76121 0.0327235 4.99984C0.0507635 2.23848 2.30391 0.0145744 5.06528 0.0326144C7.82664 0.0506544 9.55056 2.30054 9.53252 5.06191C9.51448 7.82327 7.76132 10.0504 4.99995 10.0324Z" fill="#FEFEFE"/>
</svg>
